# xmcd
#
# Track frame offsets: 
#        150
#        15868
#        32547
#        53793
#        70678
#        86799
#        104992
#        125964
#        150163
#        165481
#        185715
#        200624
#
# Disc length: 2887 seconds
#
# Revision: 0
# Processed by: cddbd v1.5.2PL0 Copyright (c) Steve Scherf et al.
# Submitted via: ExactAudioCopy v0.99pb5
#
DISCID=9d0b450c
DTITLE=Birte und der alltägliche Wahnsinn - Ungeschminkt
DYEAR=2009
DGENRE=Blues
TTITLE0=Meine Zeit
TTITLE1=Is' doch egal
TTITLE2=Ungeschminkt
TTITLE3=Sonne and Schatten
TTITLE4=Ich steh' daneben
TTITLE5=Blitzableiter
TTITLE6=Was ist Freiheit?
TTITLE7=Es wird still um mich
TTITLE8=Spontan verplant
TTITLE9=Ich trag' die Sonne im Herzen
TTITLE10=Selbstschein
TTITLE11=Traum vom Leben
EXTD=
EXTT0=
EXTT1=
EXTT2=
EXTT3=
EXTT4=
EXTT5=
EXTT6=
EXTT7=
EXTT8=
EXTT9=
EXTT10=
EXTT11=Bonus-Track
PLAYORDER=
